<svg width="15" height="15" viewBox="0 0 15 15" fill="none" xmlns="http://www.w3.org/2000/svg">
<g clip-path="url(#clip0_1_1374)">
<path fill-rule="evenodd" clip-rule="evenodd" d="M0 1.5C0 1.10218 0.158035 0.720644 0.43934 0.43934C0.720644 0.158035 1.10218 0 1.5 0L13.5 0C13.8978 0 14.2794 0.158035 14.5607 0.43934C14.842 0.720644 15 1.10218 15 1.5V5.5L14.2 4.899C13.3334 4.24907 12.2615 3.93353 11.181 4.01032C10.1005 4.08711 9.08397 4.55107 8.31802 5.31702C7.55207 6.08297 7.08811 7.09951 7.01132 8.18C6.93453 9.26049 7.25007 10.3324 7.9 11.199L8 11.333V15H1.5C1.10218 15 0.720644 14.842 0.43934 14.5607C0.158035 14.2794 0 13.8978 0 13.5L0 1.5ZM8 5H3V4H8V5ZM3 8H6V7H3V8Z" fill="#008905"/>
<path fill-rule="evenodd" clip-rule="evenodd" d="M11.5 5C10.8107 4.9999 10.1367 5.20334 9.56261 5.5848C8.98849 5.96625 8.53978 6.50874 8.27277 7.14423C8.00576 7.77971 7.93234 8.47988 8.06172 9.15693C8.19109 9.83397 8.51751 10.4577 9.00001 10.95V14.5C9.00001 14.5929 9.02587 14.6839 9.07469 14.7629C9.12351 14.8419 9.19335 14.9057 9.27641 14.9472C9.35946 14.9887 9.45244 15.0063 9.54492 14.998C9.6374 14.9896 9.72573 14.9557 9.80001 14.9L11.5 13.625L13.2 14.9C13.2743 14.9557 13.3626 14.9896 13.4551 14.998C13.5476 15.0063 13.6406 14.9887 13.7236 14.9472C13.8067 14.9057 13.8765 14.8419 13.9253 14.7629C13.9742 14.6839 14 14.5929 14 14.5V10.95C14.4825 10.4577 14.8089 9.83397 14.9383 9.15693C15.0677 8.47988 14.9943 7.77971 14.7273 7.14423C14.4602 6.50874 14.0115 5.96625 13.4374 5.5848C12.8633 5.20334 12.1893 4.9999 11.5 5ZM10 13.5V11.663C10.455 11.879 10.963 12 11.5 12C12.037 12 12.545 11.88 13 11.663V13.5L11.8 12.6C11.7135 12.5351 11.6082 12.5 11.5 12.5C11.3918 12.5 11.2866 12.5351 11.2 12.6L10 13.5Z" fill="#008905"/>
</g>
<defs>
<clipPath id="clip0_1_1374">
<rect width="15" height="15" fill="white"/>
</clipPath>
</defs>
</svg>
