<svg width="20" height="20" viewBox="0 0 20 20" fill="none" xmlns="http://www.w3.org/2000/svg">
<path d="M9.17494 5.52061C9.17755 5.99908 9.08108 6.47291 8.89161 6.91227C8.62108 7.57512 8.15991 8.14276 7.56651 8.54331C6.97312 8.94385 6.27419 9.15927 5.55827 9.16227C4.83803 9.16225 4.13397 8.94866 3.53512 8.54851C2.93627 8.14836 2.46952 7.57961 2.1939 6.9142C1.91828 6.24878 1.84616 5.51658 1.98667 4.81018C2.12718 4.10378 2.474 3.4549 2.98327 2.94561C3.32158 2.60621 3.72355 2.33692 4.16614 2.15318C4.60873 1.96944 5.08323 1.87486 5.56244 1.87486C6.04165 1.87486 6.51615 1.96944 6.95874 2.15318C7.40133 2.33692 7.8033 2.60621 8.14161 2.94561C8.81698 3.63357 9.19933 4.55658 9.20827 5.52061H9.17494ZM18.1333 5.52061C18.1346 5.99812 18.0411 6.47115 17.8583 6.91227C17.6582 7.35606 17.3754 7.75767 17.0249 8.09561C16.3406 8.77903 15.4129 9.16289 14.4458 9.16289C13.4786 9.16289 12.551 8.77903 11.8666 8.09561C11.1837 7.41266 10.8 6.48641 10.8 5.52061C10.8 4.5548 11.1837 3.62855 11.8666 2.94561C12.2035 2.6052 12.6046 2.33493 13.0465 2.15041C13.4885 1.9659 13.9627 1.8708 14.4416 1.87061C15.411 1.87337 16.3398 2.25988 17.0249 2.94561C17.3715 3.27968 17.6479 3.67946 17.8382 4.12157C18.0285 4.56369 18.1288 5.03929 18.1333 5.52061ZM9.17494 14.4789C9.17345 14.9614 9.07127 15.4382 8.87494 15.8789C8.69654 16.3223 8.43006 16.7249 8.09161 17.0623C7.75302 17.4022 7.35032 17.6715 6.90687 17.8546C6.46342 18.0377 5.98804 18.1309 5.50827 18.1289C4.78803 18.1289 4.08397 17.9153 3.48512 17.5152C2.88627 17.115 2.41952 16.5463 2.1439 15.8809C1.86828 15.2155 1.79616 14.4832 1.93667 13.7768C2.07718 13.0704 2.424 12.4216 2.93327 11.9123C3.27164 11.573 3.67363 11.3038 4.11621 11.1201C4.55879 10.9364 5.03326 10.8419 5.51244 10.8419C5.99162 10.8419 6.46609 10.9364 6.90867 11.1201C7.35125 11.3038 7.75324 11.573 8.09161 11.9123C8.76698 12.6002 9.14933 13.5232 9.15827 14.4873L9.17494 14.4789ZM18.1333 14.4789C18.1316 15.1985 17.9169 15.9014 17.5161 16.499C17.1153 17.0966 16.5465 17.5621 15.8814 17.8367C15.2163 18.1112 14.4848 18.1827 13.7791 18.0419C13.0735 17.9011 12.4254 17.5544 11.9166 17.0456C11.4078 16.5368 11.0611 15.8887 10.9203 15.1831C10.7796 14.4775 10.851 13.7459 11.1256 13.0808C11.4002 12.4158 11.8656 11.8469 12.4632 11.4461C13.0608 11.0454 13.7637 10.8306 14.4833 10.8289C15.4523 10.8335 16.3804 11.2197 17.0666 11.9039C17.4055 12.2415 17.6742 12.6429 17.8573 13.0848C18.0404 13.5268 18.1342 14.0006 18.1333 14.4789Z" fill="#008905"/>
</svg>
