<svg width="17" height="15" viewBox="0 0 17 15" fill="none" xmlns="http://www.w3.org/2000/svg">
<path d="M13.1866 14.6484C13.0604 14.6484 12.9447 14.6064 12.8395 14.5223L8.76978 11.7792L6.59293 13.3557C6.40364 13.4818 6.20383 13.5081 5.99351 13.4345C5.78319 13.361 5.65699 13.2191 5.61493 13.0089L4.51073 8.84694L0.598714 7.36504C0.325294 7.25994 0.188583 7.06025 0.188583 6.76597C0.188583 6.4717 0.325294 6.27201 0.598714 6.16691L15.4581 0.270825C15.5212 0.228786 15.5843 0.207766 15.6474 0.207766C15.6894 0.207766 15.721 0.207766 15.742 0.207766C15.9103 0.207766 16.047 0.270825 16.1521 0.396945C16.1732 0.396945 16.1837 0.407454 16.1837 0.428474C16.2678 0.533574 16.3204 0.659694 16.3414 0.806833C16.3414 0.827852 16.3414 0.859383 16.3414 0.901423C16.3414 0.922442 16.3414 0.943462 16.3414 0.964482L13.8175 14.144C13.7755 14.3542 13.6493 14.5013 13.439 14.5854C13.3548 14.6274 13.2707 14.6484 13.1866 14.6484ZM9.11681 10.4865L12.7449 12.9458L14.7009 2.69862L7.63403 9.47754L9.11681 10.455C9.11681 10.476 9.11681 10.4865 9.11681 10.4865ZM6.1197 9.95049L6.59293 11.7792L7.63403 11.0225L6.27745 10.1081C6.21435 10.0661 6.16177 10.0135 6.1197 9.95049ZM2.58627 6.76597L5.26789 7.77493C5.47822 7.85901 5.60441 8.00615 5.64648 8.21635L5.99351 9.50907C6.01454 9.34091 6.07764 9.20428 6.1828 9.09918L12.9026 2.63556L2.58627 6.76597Z" fill="#FFA800"/>
</svg>
