<svg width="20" height="20" viewBox="0 0 20 20" fill="none" xmlns="http://www.w3.org/2000/svg">
<path d="M9.16667 15H10.8333V13.3333H9.16667V15ZM10 5C9.11594 5 8.2681 5.35119 7.64298 5.97631C7.01786 6.60143 6.66667 7.44928 6.66667 8.33333H8.33333C8.33333 7.89131 8.50893 7.46738 8.82149 7.15482C9.13405 6.84226 9.55797 6.66667 10 6.66667C10.442 6.66667 10.866 6.84226 11.1785 7.15482C11.4911 7.46738 11.6667 7.89131 11.6667 8.33333C11.6667 10 9.16667 9.79167 9.16667 12.5H10.8333C10.8333 10.625 13.3333 10.4167 13.3333 8.33333C13.3333 7.44928 12.9821 6.60143 12.357 5.97631C11.7319 5.35119 10.8841 5 10 5ZM4.16667 2.5H15.8333C16.2754 2.5 16.6993 2.67559 17.0118 2.98816C17.3244 3.30072 17.5 3.72464 17.5 4.16667V15.8333C17.5 16.2754 17.3244 16.6993 17.0118 17.0118C16.6993 17.3244 16.2754 17.5 15.8333 17.5H4.16667C3.72464 17.5 3.30072 17.3244 2.98816 17.0118C2.67559 16.6993 2.5 16.2754 2.5 15.8333V4.16667C2.5 3.72464 2.67559 3.30072 2.98816 2.98816C3.30072 2.67559 3.72464 2.5 4.16667 2.5Z" fill="#008905"/>
</svg>


