<svg width="20" height="19" viewBox="0 0 20 19" fill="none" xmlns="http://www.w3.org/2000/svg">
<path d="M5.3622 0.601562C5.41728 2.9268 6.00208 5.25137 6.73427 7.15508C7.50341 9.15473 8.45638 10.7093 8.99853 11.2514L9.10153 11.3544V12.3984H10.8984V11.3544L11.0014 11.2514C11.5436 10.7093 12.4965 9.15473 13.2657 7.15508C13.9979 5.25137 14.5827 2.9268 14.6377 0.601562H5.3622ZM3.38544 3.26934C2.68349 3.50566 2.12388 3.98082 1.91571 4.45555C1.79794 4.7241 1.77978 4.98055 1.87712 5.24184C1.88825 5.27176 1.90134 5.30199 1.91603 5.33238C2.02414 5.26521 2.13496 5.2025 2.24821 5.14441L2.49341 5.01883L2.67392 5.22688C2.87458 5.45813 3.04931 5.71008 3.19821 5.97395C3.29872 5.85441 3.40161 5.66676 3.4736 5.42562C3.64903 4.83836 3.64243 3.98227 3.38544 3.26934ZM16.6145 3.26934C16.3575 3.98223 16.3509 4.83836 16.5263 5.42562C16.5983 5.66676 16.7012 5.85441 16.8017 5.97395C16.9507 5.71004 17.1254 5.45813 17.326 5.22688L17.5065 5.01883L17.7517 5.14441C17.865 5.2025 17.9758 5.26521 18.0839 5.33238C18.0986 5.30195 18.1117 5.27176 18.1228 5.24184C18.2202 4.98055 18.202 4.7241 18.0842 4.45555C17.8761 3.98082 17.3165 3.50566 16.6145 3.26934ZM2.3186 5.91543C1.52755 6.40316 0.985753 7.14492 0.883214 7.78937C0.826691 8.14484 0.88673 8.46219 1.09114 8.74816C1.15599 8.83895 1.23735 8.92762 1.33739 9.01223C1.47032 8.80548 1.61977 8.60982 1.78427 8.42719L1.96864 8.2225L2.2115 8.35258C2.52048 8.51805 2.80767 8.7207 3.06853 8.94836C3.10653 8.80645 3.13177 8.64008 3.13778 8.45555C3.16263 7.69625 2.87364 6.6768 2.31864 5.91543H2.3186ZM17.6813 5.91543C17.1263 6.67676 16.8373 7.69629 16.8622 8.45555C16.8682 8.64008 16.8934 8.80645 16.9314 8.94836C17.1923 8.7207 17.4795 8.51805 17.7884 8.35258L18.0313 8.2225L18.2157 8.42719C18.3802 8.60981 18.5296 8.80545 18.6625 9.01219C18.7625 8.92762 18.8439 8.83895 18.9088 8.74813C19.1132 8.46219 19.1733 8.14484 19.1167 7.78937C19.0142 7.14492 18.4724 6.40316 17.6813 5.91543ZM2.12497 9.12238C1.56271 9.85699 1.32435 10.7401 1.46075 11.3782C1.53607 11.7303 1.70677 12.0062 2.00153 12.2015C2.19466 12.3295 2.44997 12.4242 2.78044 12.4611C2.85421 12.2216 2.94697 11.9885 3.05782 11.7638L3.17989 11.5162L3.44942 11.5761C3.60939 11.6117 3.76712 11.6561 3.92185 11.708C3.90728 11.5581 3.87071 11.3883 3.80759 11.2073C3.55696 10.4887 2.91896 9.63758 2.12497 9.12238ZM17.875 9.12238C17.081 9.63758 16.4429 10.4887 16.1924 11.2073C16.1292 11.3883 16.0927 11.5581 16.0781 11.708C16.2331 11.6558 16.3908 11.6118 16.5505 11.5761L16.82 11.5162L16.9421 11.7638C17.053 11.9885 17.1457 12.2216 17.2195 12.4611C17.55 12.4242 17.8053 12.3295 17.9984 12.2015C18.2932 12.0062 18.4639 11.7302 18.5392 11.3782C18.6756 10.7401 18.4372 9.85699 17.875 9.12238ZM3.57419 12.3409C3.2115 13.2448 3.22157 14.21 3.5465 14.8229C3.72501 15.1596 3.98032 15.3935 4.33821 15.5089C4.51735 15.5667 4.72716 15.5945 4.97044 15.5794C4.88704 15.1436 4.8622 14.6821 4.90185 14.2146L4.92536 13.9383L5.19958 13.8967C5.3738 13.8704 5.54928 13.8533 5.72528 13.8454C5.74692 13.8445 5.76853 13.8439 5.79013 13.8431C5.30501 13.2269 4.46657 12.6154 3.57419 12.3409ZM16.4258 12.3409C15.5334 12.6154 14.6949 13.2268 14.2098 13.8431C14.2314 13.8439 14.253 13.8445 14.2746 13.8454C14.4504 13.8535 14.626 13.8703 14.8004 13.8967L15.0746 13.9383L15.0981 14.2146C15.1377 14.6821 15.1129 15.1436 15.0295 15.5794C15.2728 15.5945 15.4826 15.5667 15.6617 15.5089C16.0196 15.3935 16.275 15.1596 16.4534 14.8229C16.7784 14.21 16.7884 13.2448 16.4258 12.3409ZM7.80189 13.1016C7.72599 13.39 7.56575 13.6501 7.3579 13.8579C7.31461 13.9009 7.26919 13.9416 7.22181 13.98C7.80009 14.1087 8.3413 14.3195 8.80009 14.5839C8.89321 14.3745 9.01009 14.1798 9.16759 14.0162C9.37341 13.8024 9.66833 13.6484 9.99997 13.6484C10.3317 13.6484 10.6266 13.8024 10.8324 14.0162C10.9899 14.1798 11.1067 14.3746 11.1999 14.5839C11.6614 14.3179 12.2063 14.1061 12.7885 13.9776C12.7375 13.9358 12.6888 13.8913 12.6425 13.8443C12.4383 13.636 12.2804 13.3813 12.2026 13.1016H7.80189ZM9.99997 14.3516C9.86583 14.3516 9.77985 14.3939 9.67419 14.5037C9.56857 14.6135 9.46345 14.7975 9.38017 15.0232C9.21357 15.4746 9.13239 16.0779 9.10064 16.525C9.05884 17.1126 9.21782 17.8284 9.58052 18.0898C9.7654 18.2231 10.2345 18.2231 10.4194 18.0898C10.7821 17.8284 10.9411 17.1126 10.8993 16.525C10.8675 16.0779 10.7864 15.4746 10.6198 15.0232C10.5365 14.7975 10.4314 14.6135 10.3258 14.5037C10.2201 14.3939 10.1341 14.3516 9.99997 14.3516ZM5.95618 14.5461C5.88923 14.5457 5.82243 14.5469 5.75591 14.5496C5.70103 14.5517 5.64771 14.5605 5.59325 14.5648C5.57692 15.6514 5.97669 16.6563 6.56958 17.1681C6.89239 17.4468 7.25653 17.5889 7.677 17.5648C7.90778 17.5516 8.16114 17.4855 8.4338 17.3492C8.38419 17.0498 8.38001 16.7469 8.39931 16.475C8.424 16.1278 8.47165 15.6953 8.57427 15.2689C7.90396 14.8515 6.917 14.5504 5.95618 14.546V14.5461ZM14.0438 14.5461C13.0829 14.5504 12.096 14.8515 11.4257 15.2689C11.5283 15.6953 11.5759 16.1278 11.6006 16.475C11.6199 16.7468 11.6158 17.0498 11.5661 17.3493C11.8388 17.4856 12.0922 17.5516 12.323 17.5648C12.7434 17.5889 13.1075 17.4468 13.4304 17.1681C14.0233 16.6563 14.423 15.6514 14.4067 14.5648C14.3523 14.5605 14.2989 14.5517 14.244 14.5496C14.1773 14.5469 14.1105 14.5458 14.0438 14.5461Z" fill="#008905"/>
</svg>
