<svg width="17" height="17" viewBox="0 0 17 17" fill="none" xmlns="http://www.w3.org/2000/svg">
<path d="M8.125 15.251C8.97135 15.251 9.7701 15.1055 10.5212 14.8146C11.2724 14.5236 11.9442 14.119 12.5366 13.6006L12.5208 13.6165C12.3621 13.151 12.1399 12.7278 11.8542 12.3469C11.558 11.9661 11.2195 11.6381 10.8386 11.363C10.4578 11.088 10.0346 10.8711 9.56909 10.7124C9.11418 10.5643 8.63281 10.4902 8.125 10.4902C7.61719 10.4902 7.13582 10.5643 6.68091 10.7124C6.21541 10.8711 5.79224 11.0853 5.41138 11.3551C5.03052 11.6249 4.69727 11.9502 4.41162 12.3311C4.1154 12.7119 3.88794 13.1298 3.72925 13.5847V13.6165C4.31112 14.1243 4.97762 14.5236 5.72876 14.8146C6.4799 15.1055 7.27865 15.251 8.125 15.251Z" fill="#99A1B7"/>
</svg>
