<svg width="18" height="18" viewBox="0 0 18 18" fill="none" xmlns="http://www.w3.org/2000/svg">
<g clip-path="url(#clip0_1_1436)">
<path d="M14.3128 12.0447C15.2382 11.0147 15.7009 9.81659 15.7009 8.45029C15.7009 6.93686 15.1593 5.64939 14.0761 4.58789C12.993 3.52638 11.6942 2.99563 10.1799 2.99563C9.25448 2.99563 8.38164 3.21634 7.56138 3.65776C6.74112 4.09918 6.0786 4.7035 5.57382 5.47072C5.06905 6.23795 4.77459 7.084 4.69046 8.00888C4.6484 8.26112 4.65366 8.57641 4.70624 8.95477C4.75882 9.33313 4.87976 9.79031 5.06905 10.3263C5.25834 10.8623 5.51598 11.3616 5.84199 11.824C6.16799 12.2864 6.64647 12.7068 7.27744 13.0852C7.90841 13.4635 8.64454 13.7158 9.48584 13.8419C10.2009 13.947 10.9476 13.8944 11.7258 13.6843C11.852 13.6212 11.9887 13.6212 12.1359 13.6843L14.2181 14.504L14.155 12.5176C14.134 12.3285 14.1866 12.1708 14.3128 12.0447ZM5.44763 14.8509C6.24686 15.0821 7.02505 15.0505 7.78222 14.7563C6.62544 14.3148 5.65795 13.6159 4.87976 12.6595C4.10156 11.7031 3.62833 10.6153 3.46007 9.39619C3.03943 10.0058 2.8291 10.6784 2.8291 11.4141C2.8291 12.318 3.13407 13.1062 3.74401 13.7788C3.8702 13.905 3.92278 14.0626 3.90175 14.2518L3.83865 15.4499L4.9744 14.8824C5.12163 14.8193 5.27937 14.8088 5.44763 14.8509ZM15.4485 12.7068L15.5432 15.4499C15.5432 15.6811 15.4485 15.8598 15.2592 15.9859C15.091 16.1331 14.8911 16.1646 14.6598 16.0805L11.852 14.977C11.1158 15.1662 10.3692 15.2292 9.61203 15.1662C8.35009 16.1961 6.91989 16.5219 5.32143 16.1436L3.39698 17.0895C3.16562 17.1946 2.9553 17.1841 2.76601 17.0579C2.55568 16.9108 2.46104 16.7216 2.48207 16.4904L2.60826 14.441C1.89316 13.5371 1.53561 12.5282 1.53561 11.4141C1.53561 10.9096 1.60923 10.4209 1.75645 9.94796C1.90368 9.47502 2.11926 9.0336 2.4032 8.62371C2.68713 8.21382 3.02891 7.86174 3.42852 7.56746C3.65988 5.90689 4.41704 4.51432 5.70002 3.38975C6.98299 2.26519 8.47629 1.70291 10.1799 1.70291C12.0518 1.70291 13.6555 2.35978 14.9911 3.67352C16.3266 4.98727 16.9944 6.57952 16.9944 8.45029C16.9944 10.0478 16.4791 11.4667 15.4485 12.7068ZM12.546 6.24321C12.7143 6.24321 12.8615 6.30626 12.9877 6.43238C13.1139 6.5585 13.177 6.7109 13.177 6.88957C13.177 7.06824 13.1139 7.22063 12.9877 7.34675C12.8615 7.47287 12.7143 7.53593 12.546 7.53593H8.0977C7.90841 7.53593 7.75067 7.47287 7.62448 7.34675C7.49828 7.22063 7.43518 7.06824 7.43518 6.88957C7.43518 6.7109 7.49828 6.5585 7.62448 6.43238C7.75067 6.30626 7.90841 6.24321 8.0977 6.24321H12.546ZM12.546 9.6169C12.7143 9.6169 12.8615 9.67996 12.9877 9.80608C13.1139 9.9322 13.177 10.0846 13.177 10.2633C13.177 10.4419 13.1139 10.5943 12.9877 10.7204C12.8615 10.8466 12.7143 10.9096 12.546 10.9096H8.0977C7.90841 10.9096 7.75067 10.8466 7.62448 10.7204C7.49828 10.5943 7.43518 10.4367 7.43518 10.2475C7.43518 10.1424 7.46673 10.0373 7.52983 9.9322C7.59293 9.8271 7.6718 9.74827 7.76644 9.69572C7.86109 9.64317 7.97151 9.6169 8.0977 9.6169H12.546Z" fill="#F64E60"/>
</g>
<defs>
<clipPath id="clip0_1_1436">
<rect width="16.89" height="16.9" fill="white" transform="matrix(1 0 0 -1 0.82 17.7202)"/>
</clipPath>
</defs>
</svg>
