<svg width="20" height="20" viewBox="0 0 20 20" fill="none" xmlns="http://www.w3.org/2000/svg">
<path d="M16.2001 10.8248L16.1917 10.8415C16.2251 10.5665 16.2584 10.2832 16.2584 9.99984C16.2584 9.7165 16.2334 9.44984 16.2001 9.17484L16.2084 9.1915L18.2417 7.5915L16.2167 4.07484L13.8251 5.0415L13.8334 5.04984C13.4001 4.7165 12.9251 4.43317 12.4084 4.2165H12.4167L12.0334 1.6665H7.97506L7.60839 4.22484H7.61672C7.10006 4.4415 6.62506 4.72484 6.19172 5.05817L6.20006 5.04984L3.80006 4.07484L1.76672 7.5915L3.80006 9.1915L3.80839 9.17484C3.77506 9.44984 3.75006 9.7165 3.75006 9.99984C3.75006 10.2832 3.77506 10.5665 3.81672 10.8415L3.80839 10.8248L2.05839 12.1998L1.78339 12.4165L3.80839 15.9165L6.20839 14.9582L6.19172 14.9248C6.63339 15.2665 7.10839 15.5498 7.63339 15.7665H7.60839L7.98339 18.3332H12.0251C12.0251 18.3332 12.0501 18.1832 12.0751 17.9832L12.3917 15.7748H12.3834C12.9001 15.5582 13.3834 15.2748 13.8251 14.9332L13.8084 14.9665L16.2084 15.9248L18.2334 12.4248C18.2334 12.4248 18.1167 12.3248 17.9584 12.2082L16.2001 10.8248ZM10.0001 12.9165C8.39172 12.9165 7.08339 11.6082 7.08339 9.99984C7.08339 8.3915 8.39172 7.08317 10.0001 7.08317C11.6084 7.08317 12.9167 8.3915 12.9167 9.99984C12.9167 11.6082 11.6084 12.9165 10.0001 12.9165Z" fill="#008905"/>
</svg>
