<svg width="18" height="18" viewBox="0 0 18 18" fill="none" xmlns="http://www.w3.org/2000/svg">
<g clip-path="url(#clip0_1_1439)">
<path d="M14.8491 11.6946V11.7261C14.765 11.9154 14.7965 12.0837 14.9437 12.2309L14.9753 12.2625C15.3749 12.641 15.5747 13.109 15.5747 13.6664C15.5747 14.2237 15.3802 14.697 14.9911 15.0861C14.602 15.4751 14.1287 15.6697 13.5714 15.6697C13.014 15.6697 12.546 15.4804 12.1675 15.1018L12.1044 15.0387C11.9571 14.9125 11.7889 14.8862 11.5996 14.9599C11.4103 15.0335 11.3157 15.1754 11.3157 15.3858V15.512C11.3157 16.0588 11.1211 16.5268 10.732 16.9159C10.3429 17.305 9.86968 17.4995 9.31232 17.4995C8.75497 17.4995 8.28174 17.305 7.89264 16.9159C7.50354 16.5268 7.30899 16.0588 7.30899 15.512V15.4489C7.30899 15.2385 7.21435 15.1018 7.02506 15.0387C7.00402 15.0177 6.98299 15.0072 6.96196 15.0072C6.77267 14.9231 6.60441 14.9546 6.45718 15.1018L6.42564 15.1334C6.04705 15.533 5.57908 15.7328 5.02173 15.7328C4.46437 15.7328 3.9964 15.533 3.61782 15.1334H3.58627C3.20769 14.7548 3.0184 14.2868 3.0184 13.7295C3.0184 13.1721 3.20769 12.7041 3.58627 12.3256V12.294L3.64937 12.2625C3.77556 12.1152 3.80185 11.947 3.72824 11.7577C3.65462 11.5684 3.51266 11.4737 3.30233 11.4737H3.17614C2.6293 11.4737 2.16133 11.2792 1.77223 10.8901C1.38313 10.501 1.18858 10.0278 1.18858 9.47042C1.18858 8.91306 1.38313 8.43983 1.77223 8.05073C2.16133 7.66164 2.6293 7.46709 3.17614 7.46709H3.23924C3.44956 7.46709 3.58627 7.37244 3.64937 7.18315C3.6704 7.16212 3.68092 7.14108 3.68092 7.12005C3.76504 6.93076 3.7335 6.7625 3.58627 6.61528L3.55472 6.58373C3.15511 6.20515 2.9553 5.73718 2.9553 5.17982C2.9553 4.62246 3.14985 4.14923 3.53895 3.76014C3.92805 3.37104 4.40127 3.17649 4.95863 3.17649C5.51599 3.17649 5.98396 3.36578 6.36254 3.74436L6.42564 3.80746C6.57286 3.93365 6.74112 3.95469 6.93041 3.87056C6.97248 3.87056 7.01454 3.86004 7.05661 3.83901C7.1828 3.75488 7.25641 3.62868 7.27745 3.46043V3.33423C7.27745 2.78739 7.47199 2.31942 7.86109 1.93032C8.25019 1.54123 8.71816 1.34668 9.265 1.34668C9.81184 1.34668 10.2798 1.54123 10.6689 1.93032C11.058 2.31942 11.2526 2.78739 11.2526 3.33423V3.39733C11.2736 3.60765 11.3682 3.75488 11.5365 3.83901C11.5365 3.83901 11.547 3.83901 11.568 3.83901C11.7573 3.92314 11.9256 3.89159 12.0728 3.74436L12.1044 3.71281C12.4829 3.3132 12.9509 3.11339 13.5083 3.11339C14.0656 3.11339 14.5389 3.30794 14.928 3.69704C15.3171 4.08614 15.5116 4.55937 15.5116 5.11672C15.5116 5.67408 15.3223 6.14205 14.9437 6.52063C14.9437 6.54166 14.9437 6.55218 14.9437 6.55218L14.8806 6.58373C14.7544 6.73095 14.7334 6.89921 14.8175 7.0885C14.8175 7.13057 14.8281 7.17263 14.8491 7.2147C14.9332 7.36192 15.0594 7.43554 15.2277 7.43554H15.3539C15.9007 7.43554 16.3687 7.63009 16.7578 8.01919C17.1469 8.40828 17.3414 8.87625 17.3414 9.42309C17.3414 9.96993 17.1469 10.4379 16.7578 10.827C16.3687 11.2161 15.9007 11.4106 15.3539 11.4106H15.2908C15.0804 11.4317 14.9332 11.5263 14.8491 11.6946ZM14.0288 13.1458C13.461 12.5779 13.3348 11.9259 13.6502 11.1898C13.7975 10.8743 14.0183 10.6167 14.3128 10.4169C14.6072 10.2171 14.9332 10.1172 15.2908 10.1172H15.3539C15.5432 10.1172 15.7062 10.0488 15.8429 9.9121C15.9796 9.77539 16.0479 9.61238 16.0479 9.42309C16.0479 9.33896 16.0269 9.24958 15.9848 9.15493C15.9428 9.06029 15.8902 8.98141 15.8271 8.91832C15.764 8.85522 15.6904 8.8079 15.6063 8.77635C15.5221 8.7448 15.438 8.72903 15.3539 8.72903H15.2277C15.0594 8.72903 14.8912 8.70274 14.7229 8.65016C14.5546 8.59757 14.3969 8.52396 14.2497 8.42932C14.1024 8.33467 13.9762 8.22425 13.8711 8.09806C13.7659 7.97186 13.6818 7.82464 13.6187 7.65638C13.5766 7.59328 13.5556 7.53018 13.5556 7.46709C13.3032 6.79405 13.4399 6.19463 13.9657 5.66882L13.9973 5.60572C14.1445 5.47953 14.2181 5.31653 14.2181 5.11672C14.2181 4.91691 14.1498 4.74866 14.0131 4.61195C13.8763 4.47524 13.7081 4.40688 13.5083 4.40688C13.3085 4.40688 13.1455 4.48049 13.0193 4.62772L12.9877 4.65927C12.4199 5.22714 11.7678 5.35334 11.0317 5.03785C10.7162 4.89062 10.4586 4.66979 10.2588 4.37533C10.059 4.08088 9.95907 3.75488 9.95907 3.39733V3.33423C9.95907 3.14494 9.89071 2.98194 9.754 2.84523C9.61729 2.70852 9.45429 2.64016 9.265 2.64016C9.07571 2.64016 8.91271 2.70852 8.776 2.84523C8.63929 2.98194 8.57093 3.14494 8.57093 3.33423V3.46043C8.57093 3.81798 8.47103 4.14398 8.27122 4.43843C8.07142 4.73288 7.81377 4.94321 7.49828 5.0694C7.43519 5.11146 7.37209 5.1325 7.30899 5.1325C6.63596 5.38488 6.03654 5.24817 5.51073 4.72237L5.44763 4.69082C5.32144 4.54359 5.15844 4.46998 4.95863 4.46998C4.75882 4.46998 4.59056 4.53833 4.45385 4.67504C4.31714 4.81175 4.24879 4.98001 4.24879 5.17982C4.24879 5.37963 4.3224 5.54263 4.46963 5.66882L4.50118 5.70037C5.06905 6.26824 5.19524 6.92025 4.87976 7.65638C4.75356 7.9929 4.54324 8.26106 4.24879 8.46086C3.95434 8.66067 3.62833 8.77109 3.27078 8.79212H3.23924H3.17614C3.09201 8.79212 3.00788 8.8079 2.92375 8.83945C2.83962 8.87099 2.76601 8.91832 2.70291 8.98141C2.63981 9.04451 2.58723 9.11812 2.54517 9.20225C2.5031 9.28638 2.48207 9.38103 2.48207 9.48619C2.48207 9.61238 2.51362 9.72806 2.57672 9.83322C2.63981 9.93839 2.72394 10.0225 2.82911 10.0856C2.93427 10.1487 3.04995 10.1803 3.17614 10.1803H3.30233C3.65988 10.1803 3.98588 10.2749 4.28034 10.4642C4.57479 10.6535 4.78511 10.9164 4.91131 11.2529C5.24782 11.968 5.13215 12.6095 4.56427 13.1774L4.53273 13.2405C4.3855 13.3667 4.31189 13.5297 4.31189 13.7295C4.31189 13.9293 4.38024 14.0975 4.51695 14.2342C4.65366 14.371 4.82192 14.434 5.02173 14.4235C5.22153 14.413 5.38453 14.3447 5.51073 14.2185L5.54228 14.1869C6.11015 13.619 6.76215 13.4929 7.49828 13.8083C7.8348 13.9345 8.10296 14.1449 8.30277 14.4393C8.50258 14.7338 8.613 15.0598 8.63403 15.4173C8.63403 15.4173 8.63403 15.4278 8.63403 15.4489V15.512C8.63403 15.7012 8.70239 15.8642 8.8391 16.001C8.97581 16.1377 9.13881 16.206 9.3281 16.206C9.51739 16.206 9.68039 16.1377 9.8171 16.001C9.95381 15.8642 10.0222 15.7012 10.0222 15.512V15.3858C10.0222 15.0282 10.1168 14.7022 10.3061 14.4078C10.4954 14.1133 10.7583 13.903 11.0948 13.7768C11.8099 13.4403 12.4514 13.5559 13.0193 14.1238L13.0824 14.1554C13.2086 14.3026 13.3716 14.3762 13.5714 14.3762C13.7712 14.3762 13.9342 14.3079 14.0604 14.1711C14.1866 14.0344 14.2497 13.8662 14.2497 13.6664C14.2497 13.4666 14.1866 13.3036 14.0604 13.1774L14.0288 13.1458ZM7.37209 7.53018C7.37209 7.53018 7.50354 7.39873 7.76645 7.13583C8.02935 6.87292 8.52887 6.74147 9.265 6.74147C10.0011 6.74147 10.6321 7.00437 11.1579 7.53018C11.6837 8.05599 11.9466 8.68696 11.9466 9.42309C11.9466 10.1592 11.6837 10.7902 11.1579 11.316C10.6321 11.8418 10.0011 12.1047 9.265 12.1047C8.52887 12.1047 7.8979 11.8418 7.37209 11.316C6.84628 10.7902 6.58338 10.1592 6.58338 9.42309C6.58338 8.68696 6.84628 8.05599 7.37209 7.53018ZM8.30277 10.3853C8.30277 10.3853 8.3685 10.451 8.49995 10.5825C8.6314 10.714 8.88642 10.7797 9.265 10.7797C9.64358 10.7797 9.96433 10.6482 10.2272 10.3853C10.4901 10.1224 10.6216 9.80168 10.6216 9.42309C10.6216 9.04451 10.4901 8.72377 10.2272 8.46086C9.96433 8.19796 9.64358 8.06651 9.265 8.06651C8.88642 8.06651 8.56568 8.19796 8.30277 8.46086C8.03987 8.72377 7.90842 9.04451 7.90842 9.42309C7.90842 9.80168 8.03987 10.1224 8.30277 10.3853Z" fill="#3699FF"/>
</g>
<defs>
<clipPath id="clip0_1_1439">
<rect width="16.89" height="16.91" fill="white" transform="matrix(1 0 0 -1 0.82 17.7202)"/>
</clipPath>
</defs>
</svg>
